<svg width="34" height="24" viewBox="0 0 34 24" fill="none" xmlns="http://www.w3.org/2000/svg">
<path d="M30.0663 4.10836L16.9996 13.725L3.93294 4.10836M2.39128 0.925024C1.94925 0.925024 1.52533 1.10062 1.21277 1.41318C0.900204 1.72574 0.724609 2.14966 0.724609 2.59169V21.4334C0.724609 21.8754 0.900204 22.2993 1.21277 22.6119C1.52533 22.9244 1.94925 23.1 2.39128 23.1H31.6079C32.05 23.1 32.4739 22.9244 32.7865 22.6119C33.099 22.2993 33.2746 21.8754 33.2746 21.4334V2.56669C33.2746 2.12466 33.099 1.70074 32.7865 1.38818C32.4739 1.07562 32.05 0.900024 31.6079 0.900024H2.39128V0.925024Z" stroke="black" stroke-linecap="round" stroke-linejoin="round"/>
</svg>
