<svg width="60" height="74" viewBox="0 0 60 74" fill="none" xmlns="http://www.w3.org/2000/svg">
<path d="M15.2872 17.4684L14.7416 17.7834L6.54937 22.4964L6 22.8114V33.5084L6.54937 33.8234L14.1042 38.1703L14.0972 42.5976C12.3171 43.0385 10.9842 44.6583 10.9842 46.5674C10.9842 48.8116 12.827 50.6544 15.0711 50.6544C17.3155 50.6544 19.1582 48.8117 19.1582 46.5674C19.1582 44.7452 17.9453 43.1851 16.2871 42.6637L16.2945 38.2727L21.2272 35.4346L30.5363 40.9535V47.8236L31.0856 48.1388L35.0809 50.4385V50.4678H35.136L37.7141 51.9509L31.6314 55.4519L25.9843 52.2035C26.0109 52.0433 26.0283 51.8807 26.0283 51.7129C26.0283 50.0603 24.6888 48.7208 23.0365 48.7208C21.3841 48.7208 20.0447 50.0602 20.0447 51.7128C20.0447 53.3651 21.3841 54.7046 23.0365 54.7046C23.7232 54.7046 24.3553 54.4709 24.8603 54.082L30.5363 57.3488V60.0441L23.5601 60.0258C23.3623 59.2849 22.8851 58.6158 22.1684 58.2022C20.7373 57.376 18.9076 57.8697 18.0814 59.3008C17.255 60.7317 17.7451 62.5613 19.1763 63.3876C20.6072 64.2138 22.437 63.7236 23.2632 62.2926C23.2778 62.2674 23.2897 62.241 23.3034 62.2157L30.5363 62.234V65.4895L25.4569 68.4121C24.9166 67.8789 24.1737 67.5478 23.3549 67.5478C21.7023 67.5478 20.3629 68.8872 20.3629 70.5396C20.3629 72.1921 21.7023 73.5316 23.3546 73.5316C25.007 73.5316 26.3467 72.1921 26.3467 70.5398C26.3467 70.5028 26.3443 70.4664 26.3432 70.4299L31.6129 67.3976L39.2776 71.8068L39.8232 72.1217L40.3689 71.8067L48.561 67.0937L49.1104 66.7784V56.0817L48.561 55.7667L41.9326 51.9508L48.5611 48.1387L49.1104 47.8235V38.5147L55.1529 35.0392C55.6521 35.4125 56.2723 35.6361 56.9435 35.6361C58.5959 35.6361 59.9355 34.2966 59.9355 32.6443C59.9355 30.9919 58.5961 29.6525 56.9437 29.6525C55.2912 29.6525 53.9516 30.9919 53.9516 32.6443C53.9516 32.8263 53.968 33.0023 53.9993 33.1751L48.1214 36.559L40.8997 32.4024L40.8888 25.9353C42.5412 25.4105 43.7489 23.8532 43.7489 22.0353C43.7489 19.7909 41.9061 17.9483 39.662 17.9483C37.4179 17.9483 35.5753 19.7908 35.5753 22.0352C35.5753 23.9479 36.9139 25.5678 38.6991 26.0048L38.7101 32.4243L33.7186 35.2992L24.5745 29.9121V22.8117L24.0248 22.4967L19.9676 20.1637L19.9055 20.0538L19.8431 20.0905L15.833 17.7833L15.2872 17.4684ZM15.2872 19.9953L17.653 21.3575L11.1968 25.0966L10.6511 25.4115V26.0415L10.6327 33.6476L8.19 32.2414V24.0785L15.2872 19.9953ZM39.6622 20.138C40.7228 20.138 41.5593 20.9745 41.5593 22.0353C41.5593 23.0958 40.7229 23.9321 39.6622 23.9321C38.6017 23.9321 37.7652 23.0957 37.7652 22.0352C37.7652 20.9744 38.6016 20.138 39.6622 20.138ZM19.8502 22.6211L22.3843 24.0785V31.0218L29.9723 35.6324L31.5361 36.5517L31.5105 36.5663L33.6492 37.8624L39.8236 34.3105L42.1894 35.6726L35.6488 39.4592L35.1032 39.7742V40.4041L35.0884 47.915L32.7264 46.5563V39.8655L21.2455 32.8964L15.2873 36.3241L12.8229 34.9069L12.8411 26.6745L19.8504 22.6206L19.8502 22.6211ZM17.4809 27.1877C16.1318 27.1877 15.0602 28.2556 15.0602 29.6046C15.0602 30.9536 16.1318 32.0253 17.4809 32.0253C18.8299 32.0253 19.8979 30.9535 19.8979 29.6046C19.8979 28.2553 18.8298 27.1874 17.4807 27.1874L17.4809 27.1877ZM44.3789 36.9325L46.9205 38.3939V46.5565L39.8234 50.6395L37.2745 49.1711L37.2928 41.0375L44.3791 36.9324L44.3789 36.9325ZM15.0711 44.6704C16.1319 44.6704 16.9684 45.5069 16.9684 46.5677C16.9684 47.6282 16.1319 48.4645 15.0711 48.4645C14.0106 48.4645 13.1743 47.6281 13.1743 46.5674C13.1743 45.5069 14.0107 44.6705 15.0712 44.6705L15.0711 44.6704ZM39.8235 53.2655L46.9207 57.3523V65.5115L39.8234 69.5946L32.7261 65.5114V57.3485L39.8234 53.2653L39.8235 53.2655ZM39.7759 56.9347C37.2496 56.9347 35.2275 58.9605 35.2275 61.4868C35.2275 64.0132 37.2497 66.0389 39.776 66.0389C42.3023 66.0389 44.328 64.013 44.328 61.4867C44.328 58.9601 42.3023 56.9347 39.776 56.9347H39.7759Z" fill="#1A1A1A"/>
<circle cx="30" cy="30.4684" r="30" fill="#00326D" fill-opacity="0.1"/>
</svg>
