<svg width="40" height="40" viewBox="0 0 40 40" fill="none" xmlns="http://www.w3.org/2000/svg">
<path d="M36.1001 7.08338C35.7684 6.79204 35.3347 6.64421 34.8941 6.67233C34.4535 6.70046 34.0421 6.90223 33.7501 7.23338L30.6334 10.8167L29.5834 9.63338C29.2895 9.30186 28.8759 9.10069 28.4336 9.07412C27.9913 9.04755 27.5566 9.19777 27.2251 9.49171C26.8936 9.78566 26.6924 10.1993 26.6659 10.6415C26.6393 11.0838 26.7895 11.5185 27.0834 11.85L29.4001 14.45C29.5578 14.6248 29.7507 14.7642 29.9662 14.859C30.1816 14.9538 30.4147 15.0018 30.6501 15C30.8839 14.9974 31.1146 14.9456 31.3271 14.8479C31.5396 14.7503 31.7291 14.6091 31.8834 14.4334L36.2334 9.43338C36.5268 9.1038 36.6775 8.67134 36.6525 8.23082C36.6275 7.79029 36.4289 7.37766 36.1001 7.08338Z" fill="#00326D"/>
<path d="M16.6667 18.3333C17.9852 18.3333 19.2741 17.9423 20.3705 17.2098C21.4668 16.4773 22.3213 15.4361 22.8259 14.2179C23.3304 12.9997 23.4625 11.6593 23.2052 10.3661C22.948 9.07286 22.3131 7.88497 21.3807 6.95262C20.4484 6.02027 19.2605 5.38534 17.9673 5.1281C16.6741 4.87087 15.3336 5.00289 14.1154 5.50747C12.8973 6.01206 11.8561 6.86654 11.1235 7.96287C10.391 9.0592 10 10.3481 10 11.6667C10 13.4348 10.7024 15.1305 11.9526 16.3807C13.2029 17.631 14.8986 18.3333 16.6667 18.3333ZM16.6667 8.33334C17.3259 8.33334 17.9704 8.52883 18.5186 8.8951C19.0667 9.26138 19.494 9.78197 19.7463 10.3911C19.9986 11.0001 20.0646 11.6704 19.936 12.317C19.8073 12.9636 19.4899 13.5575 19.0237 14.0237C18.5575 14.4899 17.9636 14.8073 17.317 14.936C16.6704 15.0646 16.0001 14.9986 15.3911 14.7463C14.782 14.494 14.2614 14.0667 13.8951 13.5186C13.5288 12.9704 13.3333 12.3259 13.3333 11.6667C13.3333 10.7826 13.6845 9.93477 14.3096 9.30965C14.9348 8.68453 15.7826 8.33334 16.6667 8.33334Z" fill="#00326D"/>
<path d="M16.6667 21.6667C13.5725 21.6667 10.605 22.8959 8.41709 25.0838C6.22916 27.2718 5 30.2392 5 33.3334C5 33.7754 5.17559 34.1994 5.48816 34.5119C5.80072 34.8245 6.22464 35.0001 6.66667 35.0001C7.10869 35.0001 7.53262 34.8245 7.84518 34.5119C8.15774 34.1994 8.33333 33.7754 8.33333 33.3334C8.33333 31.1233 9.21131 29.0037 10.7741 27.4409C12.3369 25.8781 14.4565 25.0001 16.6667 25.0001C18.8768 25.0001 20.9964 25.8781 22.5592 27.4409C24.122 29.0037 25 31.1233 25 33.3334C25 33.7754 25.1756 34.1994 25.4882 34.5119C25.8007 34.8245 26.2246 35.0001 26.6667 35.0001C27.1087 35.0001 27.5326 34.8245 27.8452 34.5119C28.1577 34.1994 28.3333 33.7754 28.3333 33.3334C28.3333 30.2392 27.1042 27.2718 24.9162 25.0838C22.7283 22.8959 19.7609 21.6667 16.6667 21.6667Z" fill="#00326D"/>
</svg>
