<svg width="32" height="32" viewBox="0 0 32 32" fill="none" xmlns="http://www.w3.org/2000/svg">
<path d="M12.0903 6.38915C11.7374 5.2129 11.489 3.9914 11.3558 2.73557C11.2249 1.50124 10.1483 0.583405 8.90709 0.583405H3.14942C1.66884 0.583405 0.528258 1.86215 0.658591 3.33699C1.97142 18.1941 13.8062 30.0288 28.6633 31.3417C30.1381 31.472 31.4168 30.3356 31.4168 28.8551V23.7222C31.4168 21.8482 30.4989 20.7753 29.2647 20.6445C28.0088 20.5113 26.7873 20.2629 25.6111 19.9101C24.1723 19.4785 22.6147 19.8847 21.5524 20.9469L19.0886 23.4107C14.6503 21.0087 10.9916 17.35 8.58951 12.9117L11.0533 10.4477C12.1155 9.38557 12.5218 7.8279 12.0903 6.38915Z" stroke="black" stroke-linecap="round" stroke-linejoin="round"/>
</svg>
