<svg width="60" height="76" viewBox="0 0 60 76" fill="none" xmlns="http://www.w3.org/2000/svg">
<path d="M37.8751 35.2843C37.8127 35.0971 37.6932 34.934 37.5335 34.818C37.3738 34.702 37.1818 34.6389 36.9844 34.6375H32.3251L30.8907 30.2125C30.829 30.0249 30.7097 29.8616 30.5498 29.7458C30.3899 29.63 30.1975 29.5677 30.0001 29.5677C29.8026 29.5677 29.6102 29.63 29.4503 29.7458C29.2904 29.8616 29.1711 30.0249 29.1094 30.2125L27.6751 34.6375H23.0157C22.8183 34.6389 22.6263 34.702 22.4666 34.818C22.3069 34.934 22.1875 35.0971 22.1251 35.2843C22.0627 35.4734 22.0628 35.6775 22.1253 35.8666C22.1877 36.0556 22.3092 36.2196 22.4719 36.3343L26.2313 39.0718L24.7969 43.4968C24.735 43.6851 24.7343 43.8881 24.7949 44.0767C24.8556 44.2654 24.9744 44.4299 25.1344 44.5468C25.2962 44.6612 25.4894 44.7226 25.6876 44.7226C25.8857 44.7226 26.0789 44.6612 26.2407 44.5468L30.0001 41.8093L33.7594 44.5468C33.9226 44.6587 34.1148 44.7206 34.3125 44.725C34.5108 44.7234 34.7038 44.6613 34.8657 44.5468C35.0257 44.4299 35.1445 44.2654 35.2052 44.0767C35.2658 43.8881 35.2651 43.6851 35.2032 43.4968L33.7688 39.0718L37.5282 36.3343C37.6909 36.2196 37.8124 36.0556 37.8748 35.8666C37.9373 35.6775 37.9374 35.4734 37.8751 35.2843ZM32.1188 37.9562C31.9578 38.0724 31.8376 38.2365 31.7753 38.425C31.713 38.6136 31.7119 38.817 31.7719 39.0062L32.5313 41.3312L30.5532 39.8875C30.392 39.7716 30.1985 39.7093 30.0001 39.7093C29.8016 39.7093 29.6081 39.7716 29.4469 39.8875L27.4688 41.3312L28.2282 39.0062C28.2882 38.817 28.2871 38.6136 28.2248 38.425C28.1625 38.2365 28.0423 38.0724 27.8813 37.9562L25.9032 36.5125H28.3501C28.5481 36.5136 28.7413 36.4515 28.9015 36.3351C29.0617 36.2188 29.1805 36.0542 29.2407 35.8656L30.0001 33.5406L30.7594 35.8656C30.8196 36.0542 30.9384 36.2188 31.0986 36.3351C31.2588 36.4515 31.452 36.5136 31.65 36.5125H34.0969L32.1188 37.9562Z" fill="#1A1A1A"/>
<path d="M30 25.6187C26.7994 25.6178 23.7222 26.8534 21.411 29.0673C19.0997 31.2813 17.733 34.3025 17.5963 37.5001C17.4596 40.6977 18.5634 43.8246 20.6773 46.2277C22.7911 48.6309 25.7516 50.1245 28.9406 50.3968C29.2968 50.425 29.6437 50.4437 30 50.4437C30.3187 50.4437 30.6468 50.425 30.9656 50.3968H31.0593V50.3875C34.2471 50.1152 37.2064 48.6221 39.3195 46.2198C41.4325 43.8175 42.5359 40.6919 42.3991 37.4954C42.2624 34.299 40.8962 31.2789 38.5858 29.0659C36.2754 26.8528 33.1993 25.6178 30 25.6187ZM39.1968 43.1687C39.1944 43.1687 39.192 43.1697 39.1902 43.1715C39.1885 43.1732 39.1875 43.1756 39.1875 43.1781C38.3489 44.681 37.1535 45.9545 35.7066 46.8864C34.2597 47.8183 32.6058 48.3799 30.8906 48.5218L30.8812 48.5312H30.8718C30.2856 48.5889 29.6949 48.5858 29.1093 48.5218C26.8431 48.3287 24.7003 47.4073 23.0012 45.8954C21.3021 44.3834 20.138 42.3621 19.683 40.1337C19.2279 37.9053 19.5063 35.5894 20.4766 33.5323C21.4469 31.4753 23.0569 29.7875 25.066 28.7214C27.075 27.6552 29.3752 27.268 31.6226 27.6175C33.87 27.9671 35.9439 29.0346 37.5342 30.6606C39.1246 32.2865 40.1459 34.3836 40.4456 36.6382C40.7453 38.8927 40.3072 41.1838 39.1968 43.1687Z" fill="#1A1A1A"/>
<path d="M55.2 65.4344L51.675 59.9687C49.1531 56.0781 46.6344 52.1812 44.1187 48.2781C44.3156 48.2031 44.5406 48.1187 44.7656 48.0437C45.2737 47.942 45.7566 47.7404 46.1862 47.4508C46.6159 47.1611 46.9838 46.7891 47.2687 46.3562C47.428 45.8668 47.4893 45.3507 47.4491 44.8376C47.4089 44.3245 47.268 43.8243 47.0344 43.3656C46.814 42.8858 46.6959 42.3654 46.6875 41.8375C46.9197 41.3862 47.242 40.9874 47.6344 40.6656C48.0517 40.3496 48.4024 39.9541 48.6663 39.502C48.9301 39.0499 49.102 38.55 49.1719 38.0312C49.103 37.5134 48.9315 37.0146 48.6675 36.5638C48.4035 36.1131 48.0523 35.7196 47.6344 35.4062C47.2434 35.0793 46.9215 34.6777 46.6875 34.225C46.6959 33.6971 46.814 33.1767 47.0344 32.6969C47.2678 32.2398 47.4087 31.7412 47.4489 31.2296C47.4891 30.718 47.4279 30.2035 47.2687 29.7156C46.983 29.2835 46.6148 28.912 46.1853 28.6224C45.7558 28.3329 45.2733 28.1309 44.7656 28.0281C44.2607 27.9004 43.786 27.6742 43.3687 27.3625C43.1612 26.8854 43.0467 26.3731 43.0312 25.8531C43.0453 25.3364 42.9574 24.8221 42.7724 24.3394C42.5874 23.8568 42.309 23.4154 41.9531 23.0406C41.057 22.5131 39.9887 22.3614 38.9812 22.6187C38.471 22.7241 37.9446 22.7241 37.4344 22.6187C37.0417 22.2898 36.7196 21.8848 36.4875 21.4281C36.2743 20.9497 35.9681 20.5185 35.5866 20.1595C35.2051 19.8006 34.7561 19.5212 34.2656 19.3375C33.7577 19.2938 33.2461 19.3508 32.7603 19.5053C32.2744 19.6597 31.8238 19.9085 31.4344 20.2375C31.0085 20.562 30.5202 20.795 30 20.9219C29.4798 20.795 28.9915 20.562 28.5656 20.2375C28.1775 19.9093 27.7285 19.6608 27.2443 19.5064C26.7601 19.352 26.2502 19.2946 25.7437 19.3375C25.2512 19.5196 24.8001 19.7983 24.4169 20.1574C24.0337 20.5164 23.7262 20.9485 23.5125 21.4281C23.28 21.8819 22.9616 22.2863 22.575 22.6187C22.0616 22.7239 21.5322 22.7239 21.0187 22.6187C20.0143 22.3613 18.9488 22.513 18.0562 23.0406C17.6964 23.415 17.4149 23.8574 17.2281 24.342C17.0414 24.8265 16.9532 25.3434 16.9687 25.8625C16.9592 26.3812 16.841 26.8922 16.6219 27.3625C16.2131 27.6747 15.7438 27.8982 15.2437 28.0187C14.2159 28.2266 13.3124 28.8334 12.7312 29.7062C12.5719 30.1957 12.5106 30.7117 12.5509 31.2249C12.5911 31.738 12.732 32.2382 12.9656 32.6969C13.186 33.1767 13.3041 33.6971 13.3125 34.225C13.0785 34.6777 12.7566 35.0793 12.3656 35.4062C11.9477 35.7196 11.5964 36.1131 11.3324 36.5638C11.0684 37.0146 10.897 37.5134 10.8281 38.0312C10.898 38.55 11.0698 39.0499 11.3337 39.502C11.5976 39.9541 11.9483 40.3496 12.3656 40.6656C12.758 40.9874 13.0803 41.3862 13.3125 41.8375C13.3041 42.3654 13.186 42.8858 12.9656 43.3656C12.7322 43.8226 12.5913 44.3212 12.5511 44.8329C12.5109 45.3445 12.5721 45.859 12.7312 46.3469C13.0147 46.781 13.3822 47.154 13.8121 47.4438C14.242 47.7336 14.7256 47.9344 15.2344 48.0344C15.45 48.1187 15.675 48.1937 15.8812 48.2781C13.3594 52.1781 10.8406 56.075 8.32498 59.9687L4.79998 65.4344C4.6983 65.5875 4.64485 65.7676 4.64652 65.9514C4.64819 66.1352 4.70491 66.3143 4.80936 66.4656C4.91121 66.6168 5.05527 66.7348 5.22362 66.8048C5.39197 66.8748 5.57718 66.8938 5.75623 66.8594L12.1594 65.6687L13.7156 72.0062C13.7608 72.1833 13.8567 72.3433 13.9917 72.4665C14.1266 72.5898 14.2946 72.6709 14.475 72.7C14.5243 72.7108 14.5745 72.7171 14.625 72.7187C14.7821 72.7198 14.9369 72.6807 15.0747 72.6053C15.2125 72.5298 15.3287 72.4204 15.4125 72.2875L25.5187 56.6406C25.5937 56.6594 25.6594 56.7062 25.7344 56.725C25.8879 56.7616 26.0452 56.7805 26.2031 56.7812C27.0637 56.6864 27.8813 56.3554 28.5656 55.825C28.9915 55.5004 29.4798 55.2674 30 55.1406C30.5202 55.2674 31.0085 55.5004 31.4344 55.825C31.8241 56.1565 32.2761 56.4069 32.7639 56.5614C33.2517 56.716 33.7654 56.7716 34.275 56.725C34.35 56.7062 34.4156 56.6594 34.4812 56.6406L44.5875 72.2875C44.6712 72.4204 44.7875 72.5298 44.9253 72.6053C45.0631 72.6807 45.2179 72.7198 45.375 72.7187C45.4255 72.7171 45.4757 72.7108 45.525 72.7C45.7054 72.6709 45.8734 72.5898 46.0083 72.4665C46.1432 72.3433 46.2392 72.1833 46.2844 72.0062L47.8406 65.6687L54.2437 66.8594C54.4228 66.8928 54.6076 66.8733 54.7758 66.8034C54.9439 66.7335 55.0881 66.6161 55.1906 66.4656C55.2951 66.3143 55.3518 66.1352 55.3534 65.9514C55.3551 65.7676 55.3017 65.5875 55.2 65.4344ZM15.0187 69.4375L13.7719 64.3656C13.7158 64.1329 13.573 63.9305 13.3725 63.7998C13.1721 63.6691 12.9292 63.6199 12.6937 63.6625L7.55623 64.6187L9.89998 60.9906C12.2437 57.3531 14.5937 53.7156 16.95 50.0781C16.9602 50.1212 16.9664 50.1651 16.9687 50.2094C16.9546 50.726 17.0426 51.2404 17.2276 51.723C17.4126 52.2056 17.691 52.647 18.0469 53.0219C18.9431 53.5489 20.0112 53.7005 21.0187 53.4437C21.529 53.3384 22.0554 53.3384 22.5656 53.4437C22.9605 53.7705 23.283 54.176 23.5125 54.6344C23.6906 54.9062 23.8687 55.1781 24.0562 55.4406L15.0187 69.4375ZM34.125 54.7094C34.0492 54.7953 33.9522 54.86 33.8437 54.8969C33.5812 54.9531 32.8875 54.5312 32.4375 54.2406C31.7326 53.6933 30.8879 53.3554 30 53.2656C29.1121 53.3554 28.2674 53.6933 27.5625 54.2406C27.1125 54.5312 26.4187 54.9625 26.1656 54.9062C26.0507 54.8622 25.9478 54.7915 25.8656 54.7C25.5753 54.3751 25.3207 54.0199 25.1062 53.6406C24.7183 52.8668 24.1247 52.2148 23.3906 51.7562C22.9644 51.5622 22.4992 51.4692 22.0312 51.4844C21.6235 51.4923 21.2166 51.5236 20.8125 51.5781C20.2312 51.6437 19.4437 51.7375 19.2187 51.5594C18.9937 51.3812 18.9 50.5844 18.8344 50.0031C18.8229 49.1252 18.5664 48.268 18.0937 47.5281C18.0191 47.4345 17.9342 47.3496 17.8406 47.275C17.8048 47.2446 17.7673 47.2165 17.7281 47.1906L17.7187 47.1812H17.7094C17.1489 46.7713 16.5205 46.4635 15.8531 46.2719C15.3 46.075 14.55 45.8125 14.4187 45.5312C14.2875 45.2687 14.55 44.5281 14.7375 43.9844C15.113 43.1871 15.2529 42.2991 15.1406 41.425C14.8653 40.6039 14.3611 39.8786 13.6875 39.3344C13.275 38.9219 12.7031 38.35 12.7031 38.0312C12.7031 37.7125 13.275 37.1406 13.6875 36.7281C14.3611 36.1839 14.8653 35.4586 15.1406 34.6375C15.2529 33.7634 15.113 32.8754 14.7375 32.0781C14.55 31.5344 14.2875 30.7937 14.4187 30.5219C14.55 30.25 15.3094 29.9875 15.8625 29.7906C16.7076 29.5919 17.4784 29.1561 18.0844 28.5344C18.564 27.8007 18.8242 26.9453 18.8344 26.0687C18.9 25.4875 18.9844 24.7 19.2187 24.5125C19.4531 24.325 20.2312 24.4187 20.8125 24.4844C21.6716 24.6674 22.5648 24.6057 23.3906 24.3062C24.1269 23.8503 24.7212 23.1976 25.1062 22.4219C25.4156 21.9156 25.8469 21.2312 26.1562 21.1656C26.4187 21.1 27.1125 21.5406 27.5625 21.8219C28.2674 22.3692 29.1121 22.7071 30 22.7969C30.8879 22.7071 31.7326 22.3692 32.4375 21.8219C32.8875 21.5406 33.5719 21.1094 33.8437 21.1656C34.1531 21.2312 34.5844 21.9156 34.8937 22.4219C35.2788 23.1976 35.873 23.8503 36.6094 24.3062C37.4351 24.6057 38.3284 24.6674 39.1875 24.4844C39.7687 24.4187 40.5562 24.325 40.7812 24.5031C41.0062 24.6812 41.1 25.4781 41.1656 26.0594C41.177 26.9372 41.4336 27.7945 41.9062 28.5344C42.5211 29.156 43.297 29.5943 44.1469 29.8C44.7 29.9875 45.45 30.25 45.5812 30.5312C45.7125 30.7937 45.45 31.5344 45.2625 32.0781C44.8869 32.8754 44.7471 33.7634 44.8594 34.6375C45.1347 35.4586 45.6388 36.1839 46.3125 36.7281C46.725 37.1406 47.2969 37.7125 47.2969 38.0312C47.2969 38.35 46.725 38.9219 46.3125 39.3344C45.6388 39.8786 45.1347 40.6039 44.8594 41.425C44.7471 42.2991 44.8869 43.1871 45.2625 43.9844C45.45 44.5281 45.7125 45.2687 45.5812 45.5406C45.45 45.8125 44.6906 46.0844 44.1469 46.2719C43.4448 46.4637 42.7861 46.7883 42.2062 47.2281C42.1023 47.321 42.0052 47.4213 41.9156 47.5281C41.4359 48.2618 41.1757 49.1172 41.1656 49.9937C41.1 50.575 41.0156 51.3625 40.7812 51.55C40.5469 51.7375 39.7687 51.6437 39.1875 51.5781C38.3287 51.3904 37.4342 51.4522 36.6094 51.7562C35.8753 52.2148 35.2817 52.8668 34.8937 53.6406C34.6771 54.0237 34.4193 54.3821 34.125 54.7094ZM47.3062 63.6625C47.0707 63.6199 46.8279 63.6691 46.6274 63.7998C46.427 63.9305 46.2841 64.1329 46.2281 64.3656L44.9812 69.4375L35.9437 55.4406C36.1312 55.1781 36.3094 54.9062 36.4875 54.6344C36.7172 54.1788 37.036 53.7739 37.425 53.4437C37.9384 53.3386 38.4678 53.3386 38.9812 53.4437C39.9856 53.7011 41.0511 53.5494 41.9437 53.0219C42.3027 52.6488 42.5838 52.2079 42.7705 51.725C42.9572 51.2421 43.0459 50.7269 43.0312 50.2094C43.0329 50.1651 43.0392 50.1211 43.05 50.0781C45.4031 53.7156 47.7531 57.3531 50.1 60.9906L52.4437 64.6187L47.3062 63.6625Z" fill="#1A1A1A"/>
<circle cx="30" cy="30" r="30" fill="#00326D" fill-opacity="0.1"/>
</svg>
