<svg width="61" height="79" viewBox="0 0 61 79" fill="none" xmlns="http://www.w3.org/2000/svg">
<g clip-path="url(#clip0_8_22)">
<path d="M31.9408 65.6956C32.2735 65.6956 32.5432 65.4259 32.5432 65.0932C32.5432 64.7605 32.2735 64.4908 31.9408 64.4908C31.6081 64.4908 31.3384 64.7605 31.3384 65.0932C31.3384 65.4259 31.6081 65.6956 31.9408 65.6956Z" fill="#231F20"/>
<path d="M34.9899 64.4908C34.8712 64.4908 34.7552 64.526 34.6565 64.5919C34.5579 64.6578 34.481 64.7515 34.4356 64.8612C34.3902 64.9708 34.3783 65.0914 34.4014 65.2078C34.4246 65.3242 34.4817 65.4311 34.5656 65.515C34.6495 65.599 34.7564 65.6561 34.8728 65.6793C34.9892 65.7024 35.1099 65.6905 35.2195 65.6451C35.3291 65.5997 35.4228 65.5228 35.4888 65.4241C35.5547 65.3255 35.5899 65.2095 35.5899 65.0908C35.5899 64.9317 35.5267 64.779 35.4142 64.6665C35.3016 64.554 35.149 64.4908 34.9899 64.4908Z" fill="#231F20"/>
<path d="M37.9828 65.6956C38.3155 65.6956 38.5852 65.4259 38.5852 65.0932C38.5852 64.7605 38.3155 64.4908 37.9828 64.4908C37.6501 64.4908 37.3804 64.7605 37.3804 65.0932C37.3804 65.4259 37.6501 65.6956 37.9828 65.6956Z" fill="#231F20"/>
<path d="M25.4583 60.8704C24.7275 60.8719 24.0096 61.0633 23.3751 61.426V57.226C23.3751 57.0668 23.3119 56.9142 23.1994 56.8017C23.0868 56.6892 22.9342 56.626 22.7751 56.626H17.3499C17.2293 56.6261 17.1116 56.6626 17.012 56.7306C16.9124 56.7987 16.8357 56.8952 16.7918 57.0075C16.7479 57.1198 16.7388 57.2427 16.7658 57.3603C16.7928 57.4778 16.8546 57.5845 16.9431 57.6664C17.2549 57.9488 17.5041 58.2935 17.6747 58.6781C17.8452 59.0627 17.9332 59.4788 17.9331 59.8996C17.9331 60.7073 17.6122 61.482 17.0411 62.0531C16.4699 62.6243 15.6952 62.9452 14.8875 62.9452C14.0798 62.9452 13.3051 62.6243 12.7339 62.0531C12.1628 61.482 11.8419 60.7073 11.8419 59.8996C11.8418 59.4788 11.9298 59.0627 12.1003 58.6781C12.2709 58.2935 12.5201 57.9488 12.8319 57.6664C12.9204 57.5845 12.9822 57.4778 13.0092 57.3603C13.0362 57.2427 13.0271 57.1198 12.9832 57.0075C12.9393 56.8952 12.8626 56.7987 12.763 56.7306C12.6634 56.6626 12.5457 56.6261 12.4251 56.626H6.9999C6.84077 56.626 6.68816 56.6892 6.57564 56.8017C6.46312 56.9142 6.3999 57.0668 6.3999 57.226V70.6C6.3999 71.3956 6.71597 72.1587 7.27858 72.7213C7.84119 73.2839 8.60425 73.6 9.3999 73.6H22.7751C22.9342 73.6 23.0868 73.5368 23.1994 73.4242C23.3119 73.3117 23.3751 73.1591 23.3751 73V68.8C23.9403 69.1192 24.5712 69.3044 25.2192 69.3415C25.8673 69.3785 26.5152 69.2663 27.113 69.0136C27.7109 68.7608 28.2428 68.3742 28.6677 67.8836C29.0927 67.3929 29.3994 66.8113 29.5642 66.1835C29.729 65.5556 29.7475 64.8984 29.6184 64.2622C29.4892 63.6261 29.2158 63.0281 28.8192 62.5143C28.4225 62.0005 27.9133 61.5845 27.3306 61.2985C26.7479 61.0124 26.1074 60.8639 25.4583 60.8644V60.8704Z" fill="#231F20"/>
<g filter="url(#filter0_d_8_22)">
<path d="M25.4585 68.1616C25.036 68.1617 24.6182 68.0727 24.2323 67.9005C23.8465 67.7282 23.5013 67.4766 23.2193 67.162C23.1371 67.0735 23.0305 67.0115 22.9129 66.9839C22.7953 66.9563 22.6722 66.9644 22.5593 67.0072C22.4463 67.0508 22.3492 67.1275 22.2807 67.2273C22.2122 67.3271 22.1754 67.4453 22.1753 67.5664V72.4H9.4001C8.92271 72.4 8.46487 72.2103 8.12731 71.8728C7.78974 71.5352 7.6001 71.0774 7.6001 70.6V57.8284H11.1869C10.8275 58.4602 10.6397 59.1751 10.6421 59.902C10.6421 61.028 11.0894 62.1079 11.8856 62.9041C12.6818 63.7003 13.7617 64.1476 14.8877 64.1476C16.0137 64.1476 17.0936 63.7003 17.8898 62.9041C18.686 62.1079 19.1333 61.028 19.1333 59.902C19.1357 59.1751 18.9479 58.4602 18.5885 57.8284H22.1753V62.6644C22.1752 62.7856 22.2118 62.9041 22.2803 63.0042C22.3489 63.1042 22.4462 63.1811 22.5593 63.2248C22.6722 63.2675 22.7953 63.2756 22.9129 63.2481C23.0305 63.2205 23.1371 63.1585 23.2193 63.07C23.5013 62.7553 23.8465 62.5037 24.2323 62.3315C24.6182 62.1592 25.036 62.0703 25.4585 62.0704C25.8584 62.0704 26.2545 62.1491 26.624 62.3022C26.9935 62.4553 27.3293 62.6796 27.6121 62.9624C27.8949 63.2452 28.1192 63.581 28.2723 63.9505C28.4253 64.32 28.5041 64.716 28.5041 65.116C28.5041 65.5159 28.4253 65.912 28.2723 66.2815C28.1192 66.651 27.8949 66.9867 27.6121 67.2695C27.3293 67.5523 26.9935 67.7767 26.624 67.9297C26.2545 68.0828 25.8584 68.1616 25.4585 68.1616Z" fill="white"/>
</g>
<path d="M55 56.6284H50.8072C51.17 55.9942 51.36 55.2759 51.358 54.5452C51.358 53.4192 50.9107 52.3393 50.1145 51.5431C49.3182 50.7469 48.2384 50.2996 47.1124 50.2996C45.9864 50.2996 44.9065 50.7469 44.1103 51.5431C43.3141 52.3393 42.8668 53.4192 42.8668 54.5452C42.8647 55.2759 43.0547 55.9942 43.4176 56.6284H39.2248C39.0656 56.6284 38.913 56.6916 38.8005 56.8042C38.688 56.9167 38.6248 57.0693 38.6248 57.2284V62.6536C38.6249 62.7742 38.6614 62.892 38.7294 62.9915C38.7975 63.0911 38.8939 63.1678 39.0063 63.2117C39.1186 63.2556 39.2415 63.2647 39.359 63.2377C39.4766 63.2107 39.5833 63.1489 39.6652 63.0604C39.9474 62.7487 40.2919 62.4995 40.6763 62.329C41.0607 62.1585 41.4766 62.0704 41.8972 62.0704C42.7049 62.0704 43.4796 62.3913 44.0507 62.9625C44.6219 63.5336 44.9428 64.3083 44.9428 65.116C44.9428 65.9238 44.6219 66.6984 44.0507 67.2696C43.4796 67.8407 42.7049 68.1616 41.8972 68.1616C41.4766 68.1616 41.0607 68.0736 40.6763 67.903C40.2919 67.7325 39.9474 67.4834 39.6652 67.1716C39.5833 67.0831 39.4766 67.0213 39.359 66.9943C39.2415 66.9673 39.1186 66.9764 39.0063 67.0203C38.8939 67.0642 38.7975 67.141 38.7294 67.2405C38.6614 67.3401 38.6249 67.4578 38.6248 67.5784V73C38.6248 73.1592 38.688 73.3118 38.8005 73.4243C38.913 73.5368 39.0656 73.6 39.2248 73.6H52.6C53.3956 73.6 54.1587 73.284 54.7213 72.7213C55.2839 72.1587 55.6 71.3957 55.6 70.6V57.2284C55.6 57.0693 55.5367 56.9167 55.4242 56.8042C55.3117 56.6916 55.1591 56.6284 55 56.6284Z" fill="#231F20"/>
<path d="M54.3999 70.6C54.3999 71.0774 54.2103 71.5352 53.8727 71.8728C53.5351 72.2103 53.0773 72.4 52.5999 72.4H39.8247V68.812C40.4561 69.1716 41.1705 69.3598 41.8971 69.358C42.4546 69.358 43.0067 69.2482 43.5218 69.0348C44.0369 68.8214 44.505 68.5087 44.8992 68.1145C45.2934 67.7202 45.6062 67.2522 45.8195 66.7371C46.0329 66.222 46.1427 65.6699 46.1427 65.1124C46.1427 64.5548 46.0329 64.0028 45.8195 63.4877C45.6062 62.9726 45.2934 62.5045 44.8992 62.1103C44.505 61.716 44.0369 61.4033 43.5218 61.1899C43.0067 60.9766 42.4546 60.8668 41.8971 60.8668C41.1707 60.8651 40.4564 61.0529 39.8247 61.4116V57.8284H44.6607C44.7817 57.8285 44.9 57.7921 44.9999 57.7238C45.0998 57.6555 45.1768 57.5587 45.2206 57.4459C45.2645 57.3331 45.2732 57.2097 45.2457 57.0918C45.2181 56.974 45.1556 56.8672 45.0663 56.7856C44.7516 56.5033 44.5 56.1579 44.3278 55.7719C44.1555 55.3859 44.0666 54.9679 44.0667 54.5452C44.0667 53.7374 44.3876 52.9628 44.9587 52.3916C45.5299 51.8204 46.3046 51.4996 47.1123 51.4996C47.92 51.4996 48.6947 51.8204 49.2659 52.3916C49.837 52.9628 50.1579 53.7374 50.1579 54.5452C50.158 54.9679 50.0691 55.3859 49.8969 55.7719C49.7246 56.1579 49.473 56.5033 49.1583 56.7856C49.0691 56.8672 49.0066 56.9738 48.979 57.0915C48.9514 57.2093 48.9601 57.3326 49.0038 57.4453C49.0475 57.558 49.1243 57.6549 49.224 57.7233C49.3237 57.7917 49.4418 57.8283 49.5627 57.8284H54.3999V70.6Z" fill="white"/>
<path d="M35.6908 47.5024C35.7365 46.4176 36.1839 45.3886 36.946 44.6152C37.7175 43.8006 38.3132 42.836 38.6959 41.7813C39.0786 40.7266 39.2402 39.6044 39.1707 38.4846C39.1011 37.3648 38.8019 36.2712 38.2916 35.272C37.7812 34.2728 37.0708 33.3893 36.2044 32.6764C35.262 31.9027 34.1595 31.3482 32.9765 31.0528C31.7936 30.7575 30.5598 30.7288 29.3644 30.9688C27.934 31.2599 26.6075 31.9284 25.5224 32.9049C24.4374 33.8813 23.6333 35.1303 23.1936 36.5222C22.7539 37.9141 22.6945 39.3984 23.0216 40.821C23.3487 42.2436 24.0504 43.5528 25.054 44.6128C25.8164 45.3871 26.2645 46.4168 26.3116 47.5024C25.9466 47.5448 25.6097 47.7191 25.3642 47.9924C25.1187 48.2658 24.9815 48.6194 24.9784 48.9868V50.1016C24.979 50.5056 25.1398 50.8929 25.4254 51.1785C25.7111 51.4642 26.0984 51.625 26.5024 51.6256H26.6224C26.7185 52.7223 27.222 53.7431 28.0337 54.4868C28.8454 55.2305 29.9063 55.643 31.0072 55.643C32.108 55.643 33.1689 55.2305 33.9806 54.4868C34.7923 53.7431 35.2959 52.7223 35.392 51.6256H35.512C35.916 51.625 36.3032 51.4642 36.5889 51.1785C36.8746 50.8929 37.0353 50.5056 37.036 50.1016V48.9868C37.0325 48.6176 36.8936 48.2624 36.6457 47.9888C36.3977 47.7152 36.0579 47.5421 35.6908 47.5024Z" fill="#231F20"/>
<path d="M24.1241 37.7332C24.3675 36.36 25.0195 35.0921 25.9949 34.0954C26.9702 33.0986 28.2236 32.4192 29.5912 32.146C30.6131 31.9411 31.6677 31.9653 32.6791 32.217C33.6905 32.4687 34.6334 32.9416 35.4401 33.6016C36.1796 34.2098 36.786 34.9637 37.2216 35.8164C37.6572 36.669 37.9126 37.6022 37.9721 38.5579C38.0315 39.5135 37.8936 40.4711 37.567 41.3712C37.2404 42.2713 36.7321 43.0945 36.0737 43.7896C35.1103 44.7762 34.5472 46.085 34.4932 47.4628H33.2416V42.268H33.6773C34.1121 42.2687 34.5294 42.0966 34.8375 41.7897C35.1455 41.4828 35.3191 41.0661 35.3201 40.6312V40.48C35.3201 40.0459 35.1476 39.6296 34.8406 39.3226C34.5337 39.0157 34.1174 38.8432 33.6833 38.8432C33.2491 38.8432 32.8328 39.0157 32.5259 39.3226C32.2189 39.6296 32.0464 40.0459 32.0464 40.48V41.0692H29.9584V40.48C29.9584 40.0459 29.786 39.6296 29.479 39.3226C29.1721 39.0157 28.7558 38.8432 28.3216 38.8432C27.8875 38.8432 27.4712 39.0157 27.1643 39.3226C26.8573 39.6296 26.6848 40.0459 26.6848 40.48V40.6324C26.6858 41.0664 26.8587 41.4824 27.1657 41.7892C27.4727 42.096 27.8888 42.2686 28.3228 42.2692H28.7584V47.464H27.5056C27.451 46.0854 26.8875 44.776 25.9241 43.7884C25.1682 42.9923 24.6112 42.0288 24.2983 40.9765C23.9855 39.9243 23.9258 38.813 24.1241 37.7332Z" fill="#F1FAFA"/>
<path d="M28.7584 41.068H28.3228C28.2653 41.0682 28.2084 41.057 28.1552 41.0351C28.1021 41.0132 28.0538 40.9811 28.0131 40.9405C27.9724 40.8999 27.9402 40.8517 27.9181 40.7986C27.8961 40.7456 27.8848 40.6887 27.8848 40.6312V40.48C27.8848 40.3642 27.9308 40.2531 28.0127 40.1711C28.0946 40.0892 28.2057 40.0432 28.3216 40.0432C28.4374 40.0432 28.5485 40.0892 28.6304 40.1711C28.7123 40.2531 28.7584 40.3642 28.7584 40.48V41.068Z" fill="#F1FAFA"/>
<path d="M32.0417 42.268H29.9585V47.464H32.0417V42.268Z" fill="#F1FAFA"/>
<mask id="path-12-inside-1_8_22" fill="white">
<path d="M33.2417 41.068V40.48C33.2417 40.3642 33.2877 40.2531 33.3696 40.1711C33.4516 40.0892 33.5627 40.0432 33.6785 40.0432C33.7943 40.0432 33.9054 40.0892 33.9874 40.1711C34.0693 40.2531 34.1153 40.3642 34.1153 40.48V40.6324C34.1153 40.6899 34.104 40.7468 34.0819 40.7998C34.0599 40.8529 34.0276 40.9011 33.9869 40.9417C33.9463 40.9823 33.898 41.0144 33.8448 41.0363C33.7917 41.0582 33.7348 41.0694 33.6773 41.0692L33.2417 41.068Z"/>
</mask>
<path d="M33.2417 41.068V40.48C33.2417 40.3642 33.2877 40.2531 33.3696 40.1711C33.4516 40.0892 33.5627 40.0432 33.6785 40.0432C33.7943 40.0432 33.9054 40.0892 33.9874 40.1711C34.0693 40.2531 34.1153 40.3642 34.1153 40.48V40.6324C34.1153 40.6899 34.104 40.7468 34.0819 40.7998C34.0599 40.8529 34.0276 40.9011 33.9869 40.9417C33.9463 40.9823 33.898 41.0144 33.8448 41.0363C33.7917 41.0582 33.7348 41.0694 33.6773 41.0692L33.2417 41.068Z" fill="#F1FAFA"/>
<path d="M33.2417 41.068H32.2417V42.0653L33.2389 42.068L33.2417 41.068ZM33.2417 40.48H32.2417H33.2417ZM34.1153 40.6324H33.1153V40.6324L34.1153 40.6324ZM33.6773 41.0692L33.6745 42.0692H33.6746L33.6773 41.0692ZM34.2417 41.068V40.48H32.2417V41.068H34.2417ZM34.2417 40.48C34.2417 40.6294 34.1824 40.7726 34.0767 40.8783L32.6625 39.464C32.3931 39.7335 32.2417 40.099 32.2417 40.48H34.2417ZM34.0767 40.8783C33.9711 40.9839 33.8279 41.0432 33.6785 41.0432V39.0432C33.2974 39.0432 32.932 39.1946 32.6625 39.464L34.0767 40.8783ZM33.6785 41.0432C33.5291 41.0432 33.3859 40.9839 33.2803 40.8783L34.6945 39.464C34.425 39.1946 34.0596 39.0432 33.6785 39.0432V41.0432ZM33.2803 40.8783C33.1746 40.7726 33.1153 40.6294 33.1153 40.48H35.1153C35.1153 40.099 34.9639 39.7335 34.6945 39.464L33.2803 40.8783ZM33.1153 40.48V40.6324H35.1153V40.48H33.1153ZM33.1153 40.6324C33.1153 40.5583 33.1299 40.485 33.1583 40.4165L35.0056 41.1832C35.078 41.0086 35.1153 40.8214 35.1153 40.6324L33.1153 40.6324ZM33.1583 40.4165C33.1867 40.3481 33.2284 40.2859 33.2808 40.2336L34.6931 41.6498C34.8269 41.5163 34.9331 41.3578 35.0056 41.1832L33.1583 40.4165ZM33.2808 40.2336C33.3333 40.1813 33.3955 40.1399 33.464 40.1116L34.2256 41.961C34.4004 41.889 34.5592 41.7832 34.6931 41.6498L33.2808 40.2336ZM33.464 40.1116C33.5325 40.0834 33.6059 40.069 33.68 40.0692L33.6746 42.0692C33.8636 42.0697 34.0509 42.0329 34.2256 41.961L33.464 40.1116ZM33.6801 40.0692L33.2445 40.068L33.2389 42.068L33.6745 42.0692L33.6801 40.0692Z" fill="black" mask="url(#path-12-inside-1_8_22)"/>
<path d="M31 54.4444C30.2172 54.442 29.4621 54.1546 28.8759 53.6357C28.2897 53.1169 27.9126 52.4023 27.8152 51.6256H34.1848C34.0873 52.4023 33.7103 53.1169 33.1241 53.6357C32.5379 54.1546 31.7828 54.442 31 54.4444Z" fill="white"/>
<path d="M35.4988 48.6628H26.5C26.3211 48.6628 26.176 48.8078 26.176 48.9868V50.1004C26.176 50.2793 26.3211 50.4244 26.5 50.4244H35.4988C35.6778 50.4244 35.8228 50.2793 35.8228 50.1004V48.9868C35.8228 48.8078 35.6778 48.6628 35.4988 48.6628Z" fill="white"/>
<path d="M30.9999 29.8252C31.159 29.8252 31.3116 29.762 31.4242 29.6495C31.5367 29.537 31.5999 29.3844 31.5999 29.2252V25C31.5999 24.8409 31.5367 24.6883 31.4242 24.5758C31.3116 24.4632 31.159 24.4 30.9999 24.4C30.8408 24.4 30.6882 24.4632 30.5756 24.5758C30.4631 24.6883 30.3999 24.8409 30.3999 25V29.2252C30.3999 29.3844 30.4631 29.537 30.5756 29.6495C30.6882 29.762 30.8408 29.8252 30.9999 29.8252Z" fill="#231F20"/>
<path d="M40.6133 39.4384C40.6133 39.5975 40.6765 39.7501 40.789 39.8626C40.9015 39.9752 41.0542 40.0384 41.2133 40.0384H45.4421C45.6012 40.0384 45.7538 39.9752 45.8663 39.8626C45.9789 39.7501 46.0421 39.5975 46.0421 39.4384C46.0421 39.2792 45.9789 39.1266 45.8663 39.0141C45.7538 38.9016 45.6012 38.8384 45.4421 38.8384H41.2133C41.0542 38.8384 40.9015 38.9016 40.789 39.0141C40.6765 39.1266 40.6133 39.2792 40.6133 39.4384Z" fill="#231F20"/>
<path d="M16.558 40.0384H20.7868C20.9459 40.0384 21.0986 39.9752 21.2111 39.8626C21.3236 39.7501 21.3868 39.5975 21.3868 39.4384C21.3868 39.2792 21.3236 39.1266 21.2111 39.0141C21.0986 38.9016 20.9459 38.8384 20.7868 38.8384H16.558C16.3989 38.8384 16.2463 38.9016 16.1337 39.0141C16.0212 39.1266 15.958 39.2792 15.958 39.4384C15.958 39.5975 16.0212 39.7501 16.1337 39.8626C16.2463 39.9752 16.3989 40.0384 16.558 40.0384Z" fill="#231F20"/>
<path d="M25.3743 30.8932C25.4539 31.0307 25.5847 31.131 25.7381 31.1721C25.8915 31.2133 26.055 31.192 26.1927 31.1128C26.3305 31.0332 26.4311 30.9022 26.4722 30.7485C26.5134 30.5948 26.4919 30.431 26.4123 30.2932L24.2979 26.6308C24.2604 26.5591 24.2088 26.4957 24.1461 26.4445C24.0835 26.3932 24.0111 26.3552 23.9334 26.3327C23.8557 26.3101 23.7742 26.3035 23.6939 26.3133C23.6136 26.323 23.5361 26.3489 23.466 26.3894C23.3959 26.4299 23.3348 26.4842 23.2862 26.5489C23.2377 26.6137 23.2027 26.6876 23.1835 26.7662C23.1642 26.8447 23.1611 26.9264 23.1742 27.0063C23.1873 27.0861 23.2165 27.1625 23.2599 27.2308L25.3743 30.8932Z" fill="#231F20"/>
<path d="M39.8451 34.9324C39.9504 34.9324 40.0539 34.9047 40.1451 34.852L43.8075 32.7376C43.8758 32.6982 43.9357 32.6457 43.9837 32.5832C44.0318 32.5206 44.067 32.4493 44.0875 32.3731C44.1079 32.2969 44.1132 32.2175 44.1029 32.1393C44.0926 32.0611 44.0671 31.9857 44.0277 31.9174C43.9883 31.8491 43.9358 31.7892 43.8733 31.7412C43.8108 31.6931 43.7394 31.6579 43.6632 31.6374C43.587 31.617 43.5076 31.6117 43.4294 31.622C43.3512 31.6322 43.2758 31.6578 43.2075 31.6972L39.5451 33.8128C39.4307 33.8788 39.3413 33.9808 39.2908 34.1028C39.2402 34.2248 39.2314 34.3601 39.2656 34.4877C39.2997 34.6153 39.3751 34.728 39.4799 34.8084C39.5846 34.8888 39.713 34.9324 39.8451 34.9324Z" fill="#231F20"/>
<path d="M21.8548 44.0248L18.1924 46.1392C18.0544 46.2187 17.9537 46.3499 17.9124 46.5037C17.8711 46.6575 17.8926 46.8214 17.9722 46.9594C18.0517 47.0973 18.1828 47.198 18.3366 47.2393C18.4905 47.2806 18.6544 47.2591 18.7924 47.1796L22.4548 45.064C22.5235 45.0249 22.5839 44.9725 22.6324 44.91C22.6809 44.8475 22.7165 44.776 22.7372 44.6996C22.758 44.6232 22.7634 44.5435 22.7532 44.465C22.743 44.3866 22.7174 44.3109 22.6778 44.2424C22.6382 44.1738 22.5855 44.1138 22.5227 44.0658C22.4598 44.0177 22.3881 43.9825 22.3116 43.9623C22.2351 43.9421 22.1553 43.9372 22.0769 43.9479C21.9985 43.9586 21.923 43.9848 21.8548 44.0248Z" fill="#231F20"/>
<path d="M18.1924 32.7376L21.8548 34.852C21.923 34.892 21.9985 34.9181 22.0769 34.9288C22.1553 34.9396 22.2351 34.9347 22.3116 34.9144C22.3881 34.8942 22.4598 34.8591 22.5227 34.811C22.5855 34.7629 22.6382 34.7029 22.6778 34.6344C22.7174 34.5659 22.743 34.4902 22.7532 34.4117C22.7634 34.3332 22.758 34.2535 22.7372 34.1772C22.7165 34.1008 22.6809 34.0293 22.6324 33.9668C22.5839 33.9042 22.5235 33.8519 22.4548 33.8128L18.7924 31.6972C18.6544 31.6176 18.4905 31.5961 18.3366 31.6374C18.1828 31.6787 18.0517 31.7794 17.9722 31.9174C17.8926 32.0554 17.8711 32.2193 17.9124 32.3731C17.9537 32.5269 18.0544 32.658 18.1924 32.7376Z" fill="#231F20"/>
<path d="M39.5451 45.064L43.2075 47.1796C43.2988 47.2322 43.4022 47.26 43.5075 47.26C43.64 47.2604 43.7689 47.217 43.8741 47.1366C43.9793 47.0561 44.055 46.9431 44.0892 46.8151C44.1235 46.6872 44.1144 46.5515 44.0635 46.4292C44.0125 46.3069 43.9225 46.2049 43.8075 46.1392L40.1451 44.0248C40.0769 43.9848 40.0014 43.9586 39.923 43.9479C39.8446 43.9372 39.7648 43.9421 39.6883 43.9623C39.6118 43.9825 39.5401 44.0177 39.4772 44.0658C39.4144 44.1138 39.3617 44.1738 39.3221 44.2424C39.2825 44.3109 39.2569 44.3866 39.2467 44.465C39.2365 44.5435 39.2419 44.6232 39.2627 44.6996C39.2834 44.776 39.319 44.8475 39.3675 44.91C39.416 44.9725 39.4764 45.0249 39.5451 45.064Z" fill="#231F20"/>
<path d="M35.8073 31.1128C35.945 31.192 36.1085 31.2133 36.2619 31.1721C36.4153 31.131 36.5461 31.0307 36.6257 30.8932L38.7401 27.2308C38.7835 27.1625 38.8127 27.0861 38.8258 27.0063C38.8389 26.9264 38.8358 26.8447 38.8165 26.7662C38.7973 26.6876 38.7623 26.6137 38.7138 26.5489C38.6652 26.4842 38.6041 26.4299 38.534 26.3894C38.464 26.3489 38.3864 26.323 38.3061 26.3133C38.2258 26.3035 38.1443 26.3101 38.0666 26.3327C37.9889 26.3552 37.9165 26.3932 37.8539 26.4445C37.7912 26.4957 37.7396 26.5591 37.7021 26.6308L35.5877 30.2932C35.5081 30.431 35.4866 30.5948 35.5278 30.7485C35.569 30.9022 35.6695 31.0332 35.8073 31.1128Z" fill="#231F20"/>
</g>
<circle cx="30" cy="30" r="30" fill="#00326D" fill-opacity="0.1"/>
<defs>
<filter id="filter0_d_8_22" x="3.6001" y="57.8284" width="28.9041" height="22.5716" filterUnits="userSpaceOnUse" color-interpolation-filters="sRGB">
<feFlood flood-opacity="0" result="BackgroundImageFix"/>
<feColorMatrix in="SourceAlpha" type="matrix" values="0 0 0 0 0 0 0 0 0 0 0 0 0 0 0 0 0 0 127 0" result="hardAlpha"/>
<feOffset dy="4"/>
<feGaussianBlur stdDeviation="2"/>
<feComposite in2="hardAlpha" operator="out"/>
<feColorMatrix type="matrix" values="0 0 0 0 0 0 0 0 0 0 0 0 0 0 0 0 0 0 0.25 0"/>
<feBlend mode="normal" in2="BackgroundImageFix" result="effect1_dropShadow_8_22"/>
<feBlend mode="normal" in="SourceGraphic" in2="effect1_dropShadow_8_22" result="shape"/>
</filter>
<clipPath id="clip0_8_22">
<rect width="60" height="60" fill="white" transform="translate(1 19)"/>
</clipPath>
</defs>
</svg>
