<svg width="64" height="75" viewBox="0 0 64 75" fill="none" xmlns="http://www.w3.org/2000/svg">
<circle cx="34" cy="30" r="30" fill="#00326D" fill-opacity="0.1"/>
<path d="M48.45 61.1C50.85 58.4 52.2 54.7 51.95 50.7C51.6 45.8 48.65 41.55 44.5 39.35C44.5 39.75 44.5 40.15 44.5 40.6C44.1 50.05 36.35 58.05 26.85 58.8C26.5 58.8 26.15 58.85 25.8 58.85C28.1 62.7 32.15 65.4 36.8 65.75C38.75 65.85 40.65 65.65 42.45 65.05C43.35 64.75 46.9 66.45 48.9 67.5C49.4 67.75 50 67.25 49.75 66.7C49 64.8 48 61.65 48.45 61.1Z" fill="#00326D" fill-opacity="0.3"/>
<path d="M42.6001 40.5C42.2001 49.1 35.2501 56.25 26.7001 56.9C24.3001 57.05 21.9501 56.75 19.7501 56.05C18.6001 55.65 14.3001 57.8 11.8001 59.1C11.2001 59.4 10.4501 58.8 10.7501 58.1C11.6501 55.7 12.9501 51.8 12.3501 51.15C9.40005 47.8 7.75005 43.3 8.05005 38.35C8.65005 29.75 15.8501 22.75 24.4501 22.4C34.6501 21.9 43.0501 30.3 42.6001 40.5Z" fill="#00326D" fill-opacity="0.7"/>
<path d="M25.6999 43.65H24.3499C23.9499 43.65 23.5999 43.3 23.5999 42.9C23.5999 42 23.7499 41.25 24.0499 40.65C24.3499 40.05 24.9499 39.4 25.8499 38.7C26.7499 37.95 27.2999 37.5 27.4499 37.25C27.6999 36.9 27.8499 36.5 27.8499 36.05C27.8499 35.45 27.5999 34.95 27.1499 34.5C26.6499 34.05 26.0499 33.85 25.1999 33.85C24.3999 33.85 23.7499 34.05 23.2499 34.5C22.9499 34.75 22.6999 35.1 22.4999 35.5C22.2499 36.1 21.6499 36.45 20.9999 36.4C19.9999 36.25 19.3999 35.15 19.8999 34.25C20.1499 33.75 20.5499 33.3 20.9999 32.85C22.0499 31.95 23.3999 31.5 25.0499 31.5C26.7999 31.5 28.1999 31.95 29.2499 32.9C30.2999 33.8 30.7999 34.9 30.7999 36.1C30.7999 36.8 30.5999 37.4 30.2499 38C29.8999 38.6 29.0499 39.45 27.7999 40.45C27.1499 41 26.7499 41.4 26.5999 41.75C26.4999 42 26.3999 42.35 26.3999 42.85C26.3999 43.35 26.0999 43.65 25.6999 43.65ZM23.6499 46.3V46.15C23.6499 45.35 24.2999 44.7 25.0999 44.7H25.2499C26.0499 44.7 26.6999 45.35 26.6999 46.15V46.3C26.6999 47.1 26.0499 47.75 25.2499 47.75H25.0999C24.2999 47.75 23.6499 47.1 23.6499 46.3Z" fill="white"/>
</svg>
