<svg width="60" height="80" viewBox="0 0 60 80" fill="none" xmlns="http://www.w3.org/2000/svg">
<circle cx="30" cy="30" r="30" fill="#00326D" fill-opacity="0.1"/>
<path d="M43.2187 31.3672C43.664 33.6406 45.6562 35.3047 47.9765 35.3047C50.2968 35.3047 52.289 33.6406 52.7343 31.3672L53.3202 28.3906C53.5077 26.9375 53.0859 25.4844 52.1249 24.3828C51.164 23.2813 49.7812 22.6484 48.3281 22.6484H47.6484C46.1953 22.6484 44.8124 23.2813 43.8515 24.3828C42.8906 25.4844 42.4452 26.9375 42.6562 28.4609L43.2187 31.3672ZM45.6093 25.9297C46.1249 25.3437 46.8749 24.9922 47.6718 24.9922H48.3515C49.1484 24.9922 49.8749 25.3203 50.414 25.9297C50.9296 26.5156 51.164 27.3125 51.0702 28.0156L50.5077 30.9219C50.2734 32.1172 49.2421 32.9609 48.0234 32.9609C46.8046 32.9609 45.7734 32.0938 45.539 30.9219L44.9765 28.0859C44.8593 27.3125 45.0937 26.5156 45.6093 25.9297Z" fill="#1A1A1A"/>
<path d="M58.8983 46.8125L57.5624 40.4844C57.3983 39.7109 56.8358 39.0781 56.1093 38.8203L51.4921 37.1797L48.0233 40.6484L44.5546 37.1797L39.9374 38.8203C39.2108 39.0781 38.6483 39.7109 38.4843 40.4844L37.1483 46.8125C37.0077 47.4453 37.4062 48.0547 38.039 48.1953C38.6718 48.3359 39.2812 47.9375 39.4218 47.3047L40.7343 41.0234L43.9687 39.875L48.0468 43.9531L52.1249 39.875L55.3124 40.9766L56.6483 47.3047C56.7655 47.8438 57.2577 48.2188 57.7968 48.2188C57.8671 48.2188 57.9608 48.2188 58.0312 48.1953C58.6171 48.0781 59.0155 47.4453 58.8983 46.8125Z" fill="#1A1A1A"/>
<path d="M7.24212 31.3672C7.68744 33.6406 9.67962 35.3047 11.9999 35.3047C14.3203 35.3047 16.3124 33.6406 16.7577 31.3672L17.3437 28.3906C17.5312 26.9375 17.1093 25.4844 16.1484 24.3828C15.1874 23.2813 13.8046 22.6484 12.3515 22.6484H11.6718C10.2187 22.6484 8.83587 23.2813 7.87494 24.3828C6.914 25.4844 6.46869 26.9375 6.67962 28.4609L7.24212 31.3672ZM9.63275 25.9297C10.1484 25.3437 10.8984 24.9922 11.6953 24.9922H12.3749C13.1718 24.9922 13.8984 25.3203 14.4374 25.9297C14.9531 26.5156 15.1874 27.3125 15.0937 28.0156L14.5312 30.9219C14.2968 32.1172 13.2656 32.9609 12.0468 32.9609C10.8281 32.9609 9.79681 32.0938 9.56244 30.9219L8.99994 28.0859C8.85931 27.3125 9.11712 26.5156 9.63275 25.9297Z" fill="#1A1A1A"/>
<path d="M16.1015 39.875L19.289 40.9766L20.6249 47.3047C20.7421 47.8438 21.2343 48.2188 21.7733 48.2188C21.8437 48.2188 21.9374 48.2188 22.0077 48.1953C22.6405 48.0547 23.039 47.4453 22.8983 46.8125L21.5624 40.4844C21.3983 39.7109 20.8358 39.0781 20.1093 38.8203L15.4921 37.1797L11.9999 40.6719L8.53116 37.1797L3.91397 38.8203C3.18741 39.0781 2.62491 39.7109 2.46085 40.4844L1.12491 46.8125C0.984285 47.4453 1.38272 48.0547 2.01553 48.1953C2.64835 48.3359 3.25772 47.9375 3.39835 47.3047L4.68741 41.0234L7.92178 39.875L11.9999 43.9531L16.1015 39.875Z" fill="#1A1A1A"/>
<path d="M29.9999 64.4141C32.3202 64.4141 34.3124 62.75 34.7577 60.4766L35.3437 57.5C35.5312 56.0469 35.1093 54.5937 34.1484 53.4922C33.1874 52.3906 31.8046 51.7578 30.3515 51.7578H29.6718C28.2187 51.7578 26.8359 52.3906 25.8749 53.4922C24.914 54.5937 24.4687 56.0469 24.6796 57.5703L25.2421 60.4766C25.6874 62.75 27.6796 64.4141 29.9999 64.4141ZM27.6093 55.0391C28.1249 54.4531 28.8749 54.1016 29.6718 54.1016H30.3515C31.1484 54.1016 31.8749 54.4297 32.414 55.0391C32.9296 55.625 33.164 56.4219 33.0703 57.125L32.5077 60.0313C32.2734 61.2266 31.2421 62.0703 30.0234 62.0703C28.8046 62.0703 27.7734 61.2031 27.539 60.0313L26.9765 57.1953C26.8593 56.4219 27.0937 55.625 27.6093 55.0391Z" fill="#1A1A1A"/>
<path d="M39.5624 69.6172C39.3983 68.8437 38.8358 68.2109 38.1093 67.9531L33.4921 66.3125L29.9999 69.7812L26.5312 66.3125L21.914 67.9531C21.1874 68.2109 20.6249 68.8437 20.4608 69.6172L19.1249 75.9453C18.9843 76.5781 19.3827 77.1875 20.0155 77.3281C20.6483 77.4688 21.2577 77.0703 21.3983 76.4375L22.6874 70.1562L25.9218 69.0078L29.9999 73.0859L34.078 69.0078L37.2655 70.1094L38.6015 76.4375C38.7187 76.9766 39.2108 77.3516 39.7499 77.3516C39.8202 77.3516 39.914 77.3516 39.9843 77.3281C40.6171 77.1875 41.0155 76.5781 40.8749 75.9453L39.5624 69.6172Z" fill="#1A1A1A"/>
<path d="M50.0154 51.2891C49.3592 51.2188 48.7967 51.6875 48.7498 52.3438C48.281 57.1953 45.9607 61.6016 42.2576 64.7656C41.7654 65.1875 41.7185 65.9141 42.117 66.4063C42.3514 66.6875 42.6795 66.8047 43.0076 66.8047C43.2654 66.8047 43.5467 66.711 43.7576 66.5235C47.9295 62.961 50.531 58.0156 51.0701 52.5547C51.117 51.9219 50.6482 51.3594 50.0154 51.2891Z" fill="#1A1A1A"/>
<path d="M11.2732 52.3437C11.2029 51.7109 10.6404 51.2422 10.0076 51.2891C9.37481 51.3594 8.90606 51.9219 8.95294 52.5547C9.492 58.0156 12.0936 62.9844 16.2654 66.5234C16.4764 66.7109 16.7576 66.8047 17.0154 66.8047C17.3436 66.8047 17.6717 66.6641 17.9061 66.3828C18.3279 65.8906 18.2576 65.1641 17.7654 64.7422C14.0623 61.6016 11.742 57.1953 11.2732 52.3437Z" fill="#1A1A1A"/>
<path d="M23.8359 32.6797C27.75 31.2969 32.25 31.2969 36.1875 32.6797C36.3047 32.7266 36.4453 32.75 36.5859 32.75C37.0547 32.75 37.5234 32.4453 37.6875 31.9766C37.8984 31.3672 37.5937 30.7109 36.9844 30.5C32.5547 28.9297 27.5156 28.9297 23.0859 30.5C22.4766 30.7109 22.1719 31.3906 22.3828 31.9766C22.5469 32.5859 23.2266 32.8906 23.8359 32.6797Z" fill="#1A1A1A"/>
</svg>
